<svg version="1.1" id="Layer_1" xmlns="http://www.w3.org/2000/svg" xmlns:xlink="http://www.w3.org/1999/xlink" x="0px" y="0px"
	 width="100%" viewBox="0 0 214 169" xml:space="preserve">
<path fill="#A0A1A2" opacity="1.000000" stroke="none"
	d="
M86.199287,93.009964
	C84.560318,93.010231 83.385422,93.103424 82.229713,92.993988
	C78.090637,92.602074 75.423546,90.218910 75.108177,86.197777
	C74.755104,81.695992 78.677917,80.995529 81.919678,80.049538
	C82.841415,79.780563 83.906761,80.001526 84.906250,80.001511
	C119.056129,80.001099 153.206039,80.021881 187.355835,79.973068
	C191.318741,79.967400 194.330627,80.010391 194.166595,85.598640
	C194.016190,90.723122 193.728897,92.989746 187.122757,92.995941
	C153.639252,93.027359 120.155701,93.010124 86.199287,93.009964
z"/>
<path fill="#A0A1A2" opacity="1.000000" stroke="none"
	d="
M155.000000,26.999542
	C166.489929,26.999481 177.485428,27.201714 188.467087,26.900555
	C192.907150,26.778791 194.129623,28.188555 194.151474,32.548679
	C194.174072,37.058979 193.163803,39.205204 188.220596,39.071903
	C178.902588,38.820633 169.572968,38.999493 160.248184,38.999516
	C134.438492,38.999573 108.628235,38.915047 82.819695,39.087364
	C78.771889,39.114391 76.447487,36.909328 75.266075,33.986847
	C74.678810,32.534149 76.216293,29.664072 77.590630,28.168577
	C78.544167,27.130978 80.858360,27.048370 82.566002,27.043701
	C106.543861,26.978149 130.521957,26.999392 155.000000,26.999542
z"/>
<path fill="#A0A1A2" opacity="1.000000" stroke="none"
	d="
M152.000000,134.000244
	C164.647629,134.000153 176.798141,134.149063 188.941254,133.914871
	C192.906906,133.838379 194.225906,135.036377 194.103134,139.016937
	C193.983215,142.905090 194.316772,146.243088 188.762589,146.064819
	C180.783325,145.808685 172.789719,145.999710 164.802231,145.999741
	C137.678055,145.999863 110.553726,146.037567 83.430054,145.920105
	C81.504829,145.911758 79.016251,145.295563 77.807487,144.007111
	C76.335190,142.437729 74.685616,139.193497 75.383087,137.872025
	C76.367859,136.006241 79.317162,134.554886 81.636475,134.160507
	C85.194603,133.555450 88.931328,134.000351 92.592262,134.000320
	C112.228172,134.000183 131.864090,134.000244 152.000000,134.000244
z"/>
<path fill="#BAD537" opacity="1.000000" stroke="none"
	d="
M36.736168,30.199806
	C39.374645,31.987818 41.753819,33.527836 44.495869,35.302734
	C50.690632,28.975281 58.602543,20.893894 66.695694,12.627383
	C68.550919,14.927173 70.194664,16.964804 71.668526,18.791847
	C62.588322,27.768602 52.714947,37.529499 42.235085,47.889973
	C37.403522,43.012058 31.862871,37.593880 26.644732,31.881113
	C26.117039,31.303404 27.098972,28.329147 28.163904,27.578093
	C29.426926,26.687326 31.656481,26.537504 33.245918,26.940067
	C34.496918,27.256914 35.412365,28.898602 36.736168,30.199806
z"/>
<path fill="#B9D535" opacity="1.000000" stroke="none"
	d="
M52.248741,93.247940
	C49.224636,96.340218 46.450500,99.182610 44.178024,101.511009
	C38.064022,95.429558 32.190647,89.587448 25.958191,83.388176
	C27.411968,82.100365 29.113625,80.592972 31.154987,78.784653
	C34.790607,82.694069 38.485546,86.667274 42.533833,91.020432
	C51.024101,82.414009 58.800533,74.531189 66.936569,66.283844
	C68.995651,68.756615 70.681587,70.781273 72.554413,73.030365
	C66.145798,79.410858 59.322254,86.204460 52.248741,93.247940
z"/>
<path fill="#B9D536" opacity="1.000000" stroke="none"
	d="
M32.244865,144.749786
	C29.980366,142.517853 27.965662,140.536621 25.442860,138.055725
	C27.544041,136.523651 29.488909,135.105560 32.060581,133.230423
	C34.104431,135.366272 37.039955,138.053467 39.507935,141.117294
	C42.108536,144.345734 44.033722,143.582840 46.519745,141.020920
	C53.358170,133.973679 60.360199,127.085190 67.525940,119.904984
	C69.157005,121.884926 70.720604,123.782967 72.170204,125.542625
	C62.698082,134.909454 52.820179,144.677536 41.914944,155.461548
	C39.083183,152.316925 35.788921,148.658722 32.244865,144.749786
z"/>
</svg>