<svg xmlns="http://www.w3.org/2000/svg" width="300" height="300" viewBox="0 0 300 300" version="1.1"><path d="M 128.500 9.853 C 110.119 15.509, 95.858 25.266, 85.532 39.250 C 81.136 45.203, 83.296 43.598, 88.128 37.321 C 102.741 18.339, 129.847 6.544, 154.625 8.388 C 189.766 11.002, 219.118 36.588, 226.455 71 C 227.217 74.575, 227.877 76.366, 227.921 74.980 C 228.064 70.418, 223.947 57.631, 219.925 50.149 C 209.618 30.975, 193.757 17.664, 173.030 10.794 C 164.615 8.005, 161.979 7.603, 150.500 7.360 C 138.683 7.109, 136.681 7.336, 128.500 9.853 M 150.500 39.980 C 167.261 41.245, 177.886 46.792, 187.182 59.132 C 194.546 68.908, 195.369 72.620, 196.021 99 L 196.601 122.500 196.789 101 C 196.994 77.452, 196.368 73.163, 191.367 63.876 C 187.750 57.159, 178.966 48.317, 172.399 44.783 C 165.353 40.991, 156.807 38.974, 148.540 39.151 L 141.500 39.301 150.500 39.980 M 131.665 42.447 C 115.889 48.933, 104.706 62.751, 102.067 79.019 C 101.488 82.584, 101.012 94.162, 101.008 104.750 L 101 124 149.250 123.760 L 197.500 123.520 149.750 123.250 L 102 122.981 102.017 103.740 C 102.036 82.603, 103.256 74.085, 107.507 65.396 C 112.719 54.743, 122.461 46.543, 134.977 42.276 C 138.565 41.053, 140.600 40.051, 139.500 40.050 C 138.400 40.048, 134.874 41.127, 131.665 42.447 M 79.611 48.250 C 74.084 57.747, 69.897 72.367, 70.142 81.312 L 70.284 86.500 70.962 80 C 72.036 69.708, 74.890 59.659, 79.051 51.523 C 83.242 43.329, 83.561 41.463, 79.611 48.250 M 228.230 100.679 L 228 123.858 233.750 125.045 C 244.345 127.231, 251.159 132.122, 255.978 141 C 257.620 144.025, 258.972 145.790, 258.982 144.921 C 259.007 142.698, 253.427 134.537, 249.787 131.474 C 245.486 127.855, 239.898 125.171, 234.052 123.918 L 229.037 122.842 228.749 100.171 L 228.461 77.500 228.230 100.679 M 62.734 124.417 C 60.112 125.122, 57.637 126.063, 57.234 126.509 C 56.830 126.954, 57.400 126.990, 58.500 126.588 C 59.600 126.187, 62.433 125.494, 64.796 125.049 C 67.159 124.605, 69.372 123.962, 69.713 123.620 C 70.644 122.689, 68.061 122.984, 62.734 124.417 M 52.500 128.837 C 48.180 131.472, 43.101 137.588, 40.378 143.435 L 38.020 148.500 38.010 208.221 L 38 267.943 40.413 273.400 C 43.525 280.435, 49.600 286.981, 55.683 289.852 C 58.332 291.102, 61.281 292.547, 62.236 293.063 C 63.278 293.625, 98.165 294, 149.407 294 L 234.841 294 241.867 290.431 C 250.019 286.289, 255.244 280.958, 258.610 273.347 L 261 267.943 261 208.031 C 261 175.079, 260.663 147.909, 260.250 147.655 C 259.837 147.400, 259.500 174.711, 259.500 208.345 L 259.500 269.500 256.086 275.796 C 252.734 281.978, 248.458 286.214, 242.487 289.266 C 235.382 292.898, 229.425 293.115, 145.478 292.804 L 63.456 292.500 56.770 289.208 C 48.903 285.335, 43.865 279.927, 41.008 272.292 C 39.081 267.143, 39 264.554, 39 208.500 C 39 151.534, 39.053 149.934, 41.107 144.443 C 43.161 138.954, 48.623 132.308, 54 128.756 C 57.411 126.503, 56.222 126.567, 52.500 128.837 M 147.795 161.009 C 147.633 161.439, 140.975 165.369, 133 169.742 C 125.025 174.116, 115.912 179.156, 112.750 180.943 L 107 184.191 107 207.472 L 107 230.753 125.750 240.988 C 136.063 246.617, 145.791 252.125, 147.368 253.229 C 149.093 254.435, 150.489 254.840, 150.868 254.244 C 151.216 253.698, 157.575 249.895, 165 245.792 C 178.243 238.474, 178.506 238.262, 178.810 234.666 C 179.003 232.396, 178.684 231, 177.974 231 C 177.344 231, 170.576 234.423, 162.934 238.607 L 149.040 246.213 131.520 236.357 L 114.001 226.500 114.031 207.500 L 114.060 188.500 131.453 178.866 L 148.847 169.232 163.530 177.116 C 171.605 181.452, 178.416 185, 178.664 185 C 178.912 185, 178.977 183.173, 178.807 180.940 C 178.545 177.473, 177.988 176.596, 175 174.948 C 154.961 163.892, 148.045 160.348, 147.795 161.009 M 171.571 190.571 C 170.707 191.436, 169.993 191.773, 169.985 191.321 C 169.976 190.870, 169.533 191.175, 169 192 C 166.186 196.354, 169.537 203, 174.545 203 C 177.623 203, 182 198.890, 182 196 C 182 193.355, 177.718 189, 175.117 189 C 174.031 189, 172.436 189.707, 171.571 190.571 M 171.500 213.171 C 168.742 214.768, 168.033 216.031, 168.015 219.383 C 167.997 222.791, 171.238 226, 174.698 226 C 177.575 226, 182 221.852, 182 219.156 C 182 214.549, 175.509 210.849, 171.500 213.171" stroke="none" fill="#b5babf" fill-rule="evenodd"/><path d="M 136.919 8.996 C 112.472 12.893, 89.807 29.665, 78.770 52.027 C 72.385 64.964, 70.939 73.192, 70.289 100.266 L 69.719 124.032 67.109 124.562 C 52.968 127.430, 45.322 133.384, 40.926 144.952 C 39.104 149.747, 39 153.187, 39 208.473 C 39 264.554, 39.081 267.143, 41.008 272.292 C 43.865 279.927, 48.903 285.335, 56.770 289.208 L 63.456 292.500 145.478 292.804 C 229.425 293.115, 235.382 292.898, 242.487 289.266 C 248.458 286.214, 252.734 281.978, 256.086 275.796 L 259.500 269.500 259.500 208.500 L 259.500 147.500 256.086 141.204 C 251.137 132.076, 244.470 127.253, 233.750 125.043 L 228 123.858 228 101.387 C 228 76.919, 226.965 68.929, 222.279 57.223 C 216.244 42.149, 202.490 26.576, 187.902 18.301 C 173.828 10.317, 152.758 6.472, 136.919 8.996 M 137.265 40.542 C 119.217 45.402, 104.999 60.945, 102.067 79.019 C 101.488 82.584, 101.012 94.162, 101.008 104.750 L 101 124 149 124 L 197 124 196.988 101.750 C 196.975 77.486, 196.321 73.076, 191.367 63.876 C 187.750 57.159, 178.966 48.317, 172.399 44.783 C 162.061 39.220, 148.329 37.562, 137.265 40.542 M 147.795 161.009 C 147.633 161.439, 140.975 165.369, 133 169.742 C 125.025 174.116, 115.912 179.156, 112.750 180.943 L 107 184.191 107 207.472 L 107 230.753 125.750 240.988 C 136.063 246.617, 145.791 252.125, 147.368 253.229 C 149.093 254.435, 150.489 254.840, 150.868 254.244 C 151.216 253.698, 157.575 249.895, 165 245.792 C 178.243 238.474, 178.506 238.262, 178.810 234.666 C 179.003 232.396, 178.684 231, 177.974 231 C 177.344 231, 170.576 234.423, 162.934 238.607 L 149.040 246.213 131.520 236.357 L 114.001 226.500 114.031 207.500 L 114.060 188.500 131.453 178.866 L 148.847 169.232 163.530 177.116 C 171.605 181.452, 178.416 185, 178.664 185 C 178.912 185, 178.977 183.173, 178.807 180.940 C 178.545 177.473, 177.988 176.596, 175 174.948 C 154.961 163.892, 148.045 160.348, 147.795 161.009 M 171.571 190.571 C 170.707 191.436, 169.993 191.773, 169.985 191.321 C 169.976 190.870, 169.533 191.175, 169 192 C 166.186 196.354, 169.537 203, 174.545 203 C 177.623 203, 182 198.890, 182 196 C 182 193.355, 177.718 189, 175.117 189 C 174.031 189, 172.436 189.707, 171.571 190.571 M 171.500 213.171 C 168.742 214.768, 168.033 216.031, 168.015 219.383 C 167.997 222.791, 171.238 226, 174.698 226 C 177.575 226, 182 221.852, 182 219.156 C 182 214.549, 175.509 210.849, 171.500 213.171" stroke="none" fill="#187ffa" fill-rule="evenodd"/></svg>